<?xml version="1.0" encoding="UTF-8" standalone="no"?>
<svg
   xmlns:dc="http://purl.org/dc/elements/1.1/"
   xmlns:cc="http://creativecommons.org/ns#"
   xmlns:rdf="http://www.w3.org/1999/02/22-rdf-syntax-ns#"
   xmlns:svg="http://www.w3.org/2000/svg"
   xmlns="http://www.w3.org/2000/svg"
   xmlns:sodipodi="http://sodipodi.sourceforge.net/DTD/sodipodi-0.dtd"
   xmlns:inkscape="http://www.inkscape.org/namespaces/inkscape"
   id="svg2"
   version="1.1"
   xml:space="preserve"
   width="24"
   height="24"
   viewBox="0 0 24 24"
   inkscape:version="0.91 r13725"
   sodipodi:docname="skalp_hatch_small_win.svg"><sodipodi:namedview
     pagecolor="#ffffff"
     bordercolor="#666666"
     borderopacity="1"
     objecttolerance="10"
     gridtolerance="10"
     guidetolerance="10"
     inkscape:pageopacity="0"
     inkscape:pageshadow="2"
     inkscape:window-width="1034"
     inkscape:window-height="709"
     id="namedview10"
     showgrid="false"
     inkscape:zoom="9.8333333"
     inkscape:cx="12"
     inkscape:cy="12"
     inkscape:window-x="20"
     inkscape:window-y="43"
     inkscape:window-maximized="0"
     inkscape:current-layer="svg2" /><metadata
     id="metadata8"><rdf:RDF><cc:Work
         rdf:about=""><dc:format>image/svg+xml</dc:format><dc:type
           rdf:resource="http://purl.org/dc/dcmitype/StillImage" /><dc:title></dc:title></cc:Work></rdf:RDF></metadata><defs
     id="defs6" /><g
     id="g10"
     transform="matrix(1.0125,0,0,-1.0125,2.2799911,21.720048)"
     style="display:inline"><g
       id="g4493"
       transform="matrix(0.97241804,0,0,0.97241781,-2.109318,-2.0297131)"><rect
         transform="scale(1,-1)"
         y="-21.365068"
         x="2.6108022"
         height="18.794245"
         width="18.87421"
         id="rect4302"
         style="opacity:1;fill:#cf2b3a;fill-opacity:1;stroke:#ffffff;stroke-width:0;stroke-linecap:round;stroke-linejoin:miter;stroke-miterlimit:4;stroke-dasharray:none;stroke-opacity:1" /><path
         transform="matrix(0.8,0,0,-0.8,0,23.999999)"
         id="rect3428"
         d="m 2.7109375,2.7089844 0,0.7128906 0,23.970703 24.6816405,0 0,-24.6835936 -24.6816405,0 z m 1.4277344,1.4296875 3.9257812,0 -3.9257812,3.9257812 0,-3.9257812 z m 5.9609371,0 2.03125,0 -7.9921871,7.9921871 0,-2.03125 5.9609371,-5.9609371 z m 4.066407,0 6.300781,0 -16.3281251,16.3300781 0,-6.302734 L 14.166016,4.1386719 Z m 8.341796,0 2.029297,0 -20.3984371,20.3984371 0,-2.033203 L 22.507812,4.1386719 Z m 3.457032,0.6074219 0,6.3046872 -14.914063,14.914063 -6.3027341,0 L 25.964844,4.7460938 Z m 0,8.3417972 0,2.03125 -10.847656,10.845703 -2.029297,0 12.876953,-12.876953 z m 0,4.066406 0,5.693359 -3.117188,3.117188 -5.695312,0 8.8125,-8.810547 z m 0,7.728515 0,1.082032 -1.082032,0 1.082032,-1.082032 z"
         style="color:#000000;font-style:normal;font-variant:normal;font-weight:normal;font-stretch:normal;font-size:medium;line-height:normal;font-family:sans-serif;text-indent:0;text-align:start;text-decoration:none;text-decoration-line:none;text-decoration-style:solid;text-decoration-color:#000000;letter-spacing:normal;word-spacing:normal;text-transform:none;direction:ltr;block-progression:tb;writing-mode:lr-tb;baseline-shift:baseline;text-anchor:start;white-space:normal;clip-rule:nonzero;display:inline;overflow:visible;visibility:visible;opacity:1;isolation:auto;mix-blend-mode:normal;color-interpolation:sRGB;color-interpolation-filters:linearRGB;solid-color:#000000;solid-opacity:1;fill:#ffffff;fill-opacity:1;fill-rule:nonzero;stroke:none;stroke-width:1.14355707;stroke-linecap:round;stroke-linejoin:miter;stroke-miterlimit:4;stroke-dasharray:none;stroke-dashoffset:0;stroke-opacity:1;color-rendering:auto;image-rendering:auto;shape-rendering:auto;text-rendering:auto;enable-background:accumulate"
         inkscape:connector-curvature="0" /><path
         style="color:#000000;font-style:normal;font-variant:normal;font-weight:normal;font-stretch:normal;font-size:medium;line-height:normal;font-family:sans-serif;text-indent:0;text-align:start;text-decoration:none;text-decoration-line:none;text-decoration-style:solid;text-decoration-color:#000000;letter-spacing:normal;word-spacing:normal;text-transform:none;direction:ltr;block-progression:tb;writing-mode:lr-tb;baseline-shift:baseline;text-anchor:start;white-space:normal;clip-rule:nonzero;display:inline;overflow:visible;visibility:visible;opacity:1;isolation:auto;mix-blend-mode:normal;color-interpolation:sRGB;color-interpolation-filters:linearRGB;solid-color:#000000;solid-opacity:1;fill:#ffffff;fill-opacity:1;fill-rule:nonzero;stroke:none;stroke-width:1.14355707;stroke-linecap:round;stroke-linejoin:miter;stroke-miterlimit:4;stroke-dasharray:none;stroke-dashoffset:0;stroke-opacity:1;color-rendering:auto;image-rendering:auto;shape-rendering:auto;text-rendering:auto;enable-background:accumulate"
         d="m 2.7109375,2.7089844 0,0.7128906 0,23.970703 24.6816405,0 0,-24.6835936 -24.6816405,0 z m 1.4277344,1.4296875 3.9257812,0 -3.9257812,3.9257812 0,-3.9257812 z m 5.9609371,0 2.03125,0 -7.9921871,7.9921871 0,-2.03125 5.9609371,-5.9609371 z m 4.066407,0 6.300781,0 -16.3281251,16.3300781 0,-6.302734 L 14.166016,4.1386719 Z m 8.341796,0 2.029297,0 -20.3984371,20.3984371 0,-2.033203 L 22.507812,4.1386719 Z m 3.457032,0.6074219 0,6.3046872 -14.914063,14.914063 -6.3027341,0 L 25.964844,4.7460938 Z m 0,8.3417972 0,2.03125 -10.847656,10.845703 -2.029297,0 12.876953,-12.876953 z m 0,4.066406 0,5.693359 -3.117188,3.117188 -5.695312,0 8.8125,-8.810547 z m 0,7.728515 0,1.082032 -1.082032,0 1.082032,-1.082032 z"
         id="path4464"
         transform="matrix(0.8,0,0,-0.8,0,23.999999)"
         inkscape:connector-curvature="0" /></g></g></svg>