<?xml version="1.0" encoding="UTF-8"?>
<svg xmlns="http://www.w3.org/2000/svg" xmlns:xlink="http://www.w3.org/1999/xlink" width="24pt" height="24pt" viewBox="0 0 24 24">
<defs>
<clipPath id="clip-0">
<path clip-rule="nonzero" d="M 5 5 L 19 5 L 19 19 L 5 19 Z M 5 5 "/>
</clipPath>
<clipPath id="clip-1">
<path clip-rule="evenodd" d="M 5 12 C 5 8.136719 8.136719 5 12 5 C 15.863281 5 19 8.136719 19 12 C 19 15.863281 15.863281 19 12 19 C 8.136719 19 5 15.863281 5 12 Z M 5 12 "/>
</clipPath>
<clipPath id="clip-2">
<path clip-rule="nonzero" d="M 7.660156 11.125 L 16.265625 11.125 L 16.265625 12.800781 L 7.660156 12.800781 Z M 7.660156 11.125 "/>
</clipPath>
</defs>
<g clip-path="url(#clip-0)">
<g clip-path="url(#clip-1)">
<rect x="-2.4" y="-2.4" width="28.8" height="28.8" fill="rgb(100%, 100%, 100%)" fill-opacity="1"/>
<path fill="none" stroke-width="2.545029" stroke-linecap="butt" stroke-linejoin="miter" stroke="rgb(0%, 0%, 0%)" stroke-opacity="1" stroke-miterlimit="10" d="M 0 7 C 0 3.136719 3.136719 0 7 0 C 10.863281 0 14 3.136719 14 7 C 14 10.863281 10.863281 14 7 14 C 3.136719 14 0 10.863281 0 7 Z M 0 7 " transform="matrix(1, 0, 0, 1, 5, 5)"/>
</g>
</g>
<g clip-path="url(#clip-2)">
<path fill-rule="nonzero" fill="rgb(0%, 0%, 0%)" fill-opacity="1" d="M 2.660156 6.125 L 21.265625 6.125 L 21.265625 17.800781 L 2.660156 17.800781 Z M 2.660156 6.125 "/>
</g>
</svg>
