<?xml version="1.0" encoding="UTF-8"?>
<svg xmlns="http://www.w3.org/2000/svg" xmlns:xlink="http://www.w3.org/1999/xlink" width="24pt" height="24pt" viewBox="0 0 24 24">
<defs>
<clipPath id="clip-0">
<path clip-rule="nonzero" d="M 6.726562 4.289062 L 17.273438 4.289062 L 17.273438 19.757812 L 6.726562 19.757812 Z M 6.726562 4.289062 "/>
</clipPath>
<clipPath id="clip-1">
<path clip-rule="nonzero" d="M 6 3 L 18 3 L 18 4.6875 L 6 4.6875 Z M 16.875 4.6875 L 18 4.6875 L 18 19.359375 L 16.875 19.359375 Z M 6 4.6875 L 7.125 4.6875 L 7.125 19.359375 L 6 19.359375 Z M 6 19.359375 L 18 19.359375 L 18 21 L 6 21 Z M 6 19.359375 "/>
</clipPath>
<clipPath id="clip-2">
<path clip-rule="nonzero" d="M 7.125 11.25 L 16.875 11.25 L 16.875 19.359375 L 7.125 19.359375 Z M 7.125 11.25 "/>
</clipPath>
<clipPath id="clip-3">
<path clip-rule="nonzero" d="M 8 5 L 16 5 L 16 11 L 8 11 Z M 8 5 "/>
</clipPath>
<clipPath id="clip-4">
<path clip-rule="evenodd" d="M 8.203125 5.960938 L 11.96875 10.171875 L 15.796875 5.953125 Z M 8.203125 5.960938 "/>
</clipPath>
<clipPath id="clip-5">
<path clip-rule="nonzero" d="M 9.5625 14.71875 L 14.4375 14.71875 L 14.4375 15.984375 L 9.5625 15.984375 Z M 9.5625 14.71875 "/>
</clipPath>
<clipPath id="clip-6">
<path clip-rule="nonzero" d="M 11.367188 12.914062 L 12.632812 12.914062 L 12.632812 17.789062 L 11.367188 17.789062 Z M 11.367188 12.914062 "/>
</clipPath>
</defs>
<g clip-path="url(#clip-0)">
<path fill-rule="nonzero" fill="rgb(100%, 100%, 100%)" fill-opacity="1" d="M 2.125 -0.3125 L 21.875 -0.3125 L 21.875 24.359375 L 2.125 24.359375 Z M 2.125 -0.3125 "/>
</g>
<g clip-path="url(#clip-1)">
<path fill="none" stroke-width="1.590643" stroke-linecap="butt" stroke-linejoin="miter" stroke="rgb(59.216309%, 59.216309%, 59.216309%)" stroke-opacity="1" stroke-miterlimit="10" d="M 0.000000000000000888 0 L 9.75 0 L 9.75 14.671875 L 0.000000000000000888 14.671875 Z M 0.000000000000000888 0 " transform="matrix(1, 0, 0, 1, 7.125, 4.6875)"/>
</g>
<g clip-path="url(#clip-2)">
<path fill-rule="nonzero" fill="rgb(0%, 0%, 0%)" fill-opacity="1" d="M 2.125 6.25 L 21.875 6.25 L 21.875 24.359375 L 2.125 24.359375 Z M 2.125 6.25 "/>
</g>
<g clip-path="url(#clip-3)">
<g clip-path="url(#clip-4)">
<path fill-rule="nonzero" fill="rgb(0%, 0%, 0%)" fill-opacity="1" d="M 3.203125 0.953125 L 20.796875 0.953125 L 20.796875 15.171875 L 3.203125 15.171875 Z M 3.203125 0.953125 "/>
</g>
</g>
<g clip-path="url(#clip-5)">
<path fill-rule="nonzero" fill="rgb(100%, 100%, 100%)" fill-opacity="1" d="M 4.5625 9.71875 L 19.4375 9.71875 L 19.4375 20.984375 L 4.5625 20.984375 Z M 4.5625 9.71875 "/>
</g>
<g clip-path="url(#clip-6)">
<path fill-rule="nonzero" fill="rgb(100%, 100%, 100%)" fill-opacity="1" d="M 6.367188 22.789062 L 6.367188 7.914062 L 17.632812 7.914062 L 17.632812 22.789062 Z M 6.367188 22.789062 "/>
</g>
</svg>
