<?xml version="1.0" encoding="UTF-8"?>
<!DOCTYPE svg PUBLIC "-//W3C//DTD SVG 1.1//EN" "http://www.w3.org/Graphics/SVG/1.1/DTD/svg11.dtd">
<svg version="1.1" xmlns="http://www.w3.org/2000/svg" xmlns:xlink="http://www.w3.org/1999/xlink" x="0" y="0" width="512" height="512" viewBox="0, 0, 512, 512">
  <g id="Page-1">
    <path d="M288.143,159.068 C272.441,216.31 213.309,275.443 156.069,291.144 C98.826,306.847 65.152,273.173 80.857,215.931 C96.559,158.692 155.691,99.559 212.931,83.855 C270.174,68.155 303.848,101.828 288.143,159.068" fill="#BBBBBB" id="Fill-28315"/>
    <path d="M288.143,159.068 C272.441,216.309 213.309,275.441 156.069,291.144 C98.826,306.846 65.152,273.173 80.857,215.932 C96.559,158.691 155.691,99.559 212.931,83.856 C270.174,68.154 303.848,101.827 288.143,159.068" fill-opacity="0" stroke="#000000" stroke-width="13.333" stroke-linecap="round" id="Stroke-28316"/>
    <path d="M268.715,158.638 C253.604,205.976 202.979,256.602 155.641,271.714 C108.3,286.826 82.174,260.703 97.285,213.364 C112.396,166.026 163.021,115.398 210.362,100.286 C257.7,85.174 283.826,111.297 268.715,158.638" fill="#92AAA4" id="Fill-28317"/>
    <path d="M268.715,158.636 C253.604,205.975 202.979,256.601 155.641,271.714 C108.3,286.826 82.174,260.702 97.285,213.363 C112.396,166.025 163.021,115.399 210.362,100.286 C257.7,85.174 283.826,111.298 268.715,158.636" fill-opacity="0" stroke="#000000" stroke-width="5.333" stroke-linecap="round" stroke-linejoin="round" id="Stroke-28318"/>
    <path d="M91,279.607 C194.273,350.599 267.492,401.901 267.492,401.901 C341.354,420.205 421.821,313.994 400.52,269.141 L294.619,120 C296.232,137.88 314.221,158.853 251.249,233.476 C199.186,295.171 149.292,305.658 91,279.607 L91,279.607 z" fill="#616265" id="Fill-28319"/>
    <path d="M278.117,93 L400.52,269.766 C421.821,314.744 341.354,421.25 267.492,402.895 L267.492,402.895 C267.492,402.895 267.492,402.895 91,280.261" fill-opacity="0" stroke="#000000" stroke-width="13.333" stroke-linecap="round" id="Stroke-28320"/>
    <path d="M306.117,131 C307.744,132.933 381.513,240.426 381.513,240.426 C381.513,240.426 404.521,258.272 369.872,312 L288,227.238 C332.852,163.173 306.117,131 306.117,131 L306.117,131 z" fill="#B3A47B" id="Fill-28321"/>
    <path d="M306.117,131 C307.744,132.933 381.513,240.426 381.513,240.426 C381.513,240.426 404.521,258.272 369.872,312 L288,227.239 C332.852,163.173 306.117,131 306.117,131 L306.117,131 z" fill-opacity="0" stroke="#000000" stroke-width="5.333" stroke-linecap="round" stroke-linejoin="round" id="Stroke-28322"/>
    <path d="M353,345.341 L266.699,259 C182.514,343.232 141,312.053 141,312.053 L170.824,331.502 C171.467,332.046 246.803,386.977 246.803,386.977 C246.803,386.977 281.017,416.479 352.558,344.901" fill="#DBD09B" id="Fill-28323"/>
    <path d="M353,345.342 L266.699,259 C182.514,343.232 141,312.055 141,312.055 L170.824,331.502 C171.467,332.045 246.803,386.976 246.803,386.976 C246.803,386.976 281.017,416.479 352.558,344.901" fill-opacity="0" stroke="#3094FF" stroke-width="2.667" stroke-opacity="0.498" stroke-linecap="round" stroke-linejoin="round" id="Stroke-28324"/>
    <path d="M268.551,157.784 C253.159,204.77 202.379,255.268 155.132,270.575 C107.882,285.882 82.058,260.201 97.449,213.216 C112.841,166.23 163.621,115.732 210.868,100.425 C258.118,85.118 283.942,110.799 268.551,157.784" fill-opacity="0" stroke="#000000" stroke-width="10.667" stroke-linecap="round" stroke-linejoin="round" id="Stroke-28325"/>
    <path d="M314.873,258 C428.404,193.428 397.114,76.254 307,131.294" fill-opacity="0" stroke="#000000" stroke-width="16" stroke-linecap="round" id="Stroke-28327"/>
    <path d="M312.314,252.686 C318.562,258.935 318.562,269.065 312.314,275.314 C306.066,281.562 295.936,281.562 289.688,275.314 C283.437,269.065 283.437,258.935 289.688,252.686 C295.936,246.438 306.066,246.438 312.314,252.686" fill-opacity="0" stroke="#000000" stroke-width="16" id="Stroke-28330"/>
    <path d="M353,347.343 L266.702,261 C182.512,345.231 141,314.054 141,314.054 L170.825,333.503 C171.465,334.045 246.8,388.977 246.8,388.977 C246.8,388.977 281.018,418.478 352.56,346.9" fill-opacity="0" stroke="#000000" stroke-width="5.333" stroke-linecap="round" stroke-linejoin="round" id="Stroke-28332"/>
    <path d="M351,345.343 L264.701,259 C180.512,343.231 139,312.054 139,312.054 L168.825,331.502 C169.467,332.044 244.801,386.977 244.801,386.977 C244.801,386.977 279.016,416.478 350.558,344.901" fill-opacity="0" stroke="#000000" stroke-width="5.333" stroke-linecap="round" stroke-linejoin="round" id="Stroke-28334"/>
    <path d="M244,191.65 C181.476,176.971 86.593,226.073 53.492,270.107 C20.392,314.138 73.716,440.803 101.535,430.395 C130.957,419.386 143.789,296.533 162.181,278.184 C180.568,259.837 244,217.334 244,191.65 L244,191.65 z" fill="#CD3332" id="Fill-28336"/>
    <path d="M244,191.649 C181.476,176.972 86.593,226.073 53.492,270.106 C20.392,314.139 73.716,440.804 101.535,430.395 C130.957,419.387 143.789,296.532 162.181,278.184 C180.568,259.838 244,217.335 244,191.649 L244,191.649 z" fill-opacity="0" stroke="#000000" stroke-width="10.667" stroke-linecap="round" stroke-linejoin="round" id="Stroke-28338"/>
  </g>
</svg>
