<?xml version="1.0" encoding="UTF-8"?>
<!DOCTYPE svg PUBLIC "-//W3C//DTD SVG 1.1//EN" "http://www.w3.org/Graphics/SVG/1.1/DTD/svg11.dtd">
<svg version="1.1" xmlns="http://www.w3.org/2000/svg" xmlns:xlink="http://www.w3.org/1999/xlink" x="0" y="0" width="20" height="20" viewBox="0, 0, 20, 20">
  <g id="DWG">
    <path d="M0.803,14.073 L2.916,14.073 Q3.631,14.073 4.006,14.183 Q4.51,14.331 4.869,14.71 Q5.229,15.089 5.416,15.638 Q5.604,16.187 5.604,16.991 Q5.604,17.698 5.428,18.21 Q5.213,18.835 4.814,19.222 Q4.514,19.515 4.002,19.679 Q3.619,19.8 2.979,19.8 L0.803,19.8 z M1.959,15.042 L1.959,18.835 L2.822,18.835 Q3.307,18.835 3.521,18.78 Q3.803,18.71 3.988,18.542 Q4.174,18.374 4.291,17.989 Q4.408,17.605 4.408,16.941 Q4.408,16.277 4.291,15.921 Q4.174,15.566 3.963,15.366 Q3.752,15.167 3.428,15.097 Q3.186,15.042 2.479,15.042 z" fill="#000000"/>
    <path d="M7.396,19.8 L6.029,14.073 L7.213,14.073 L8.076,18.007 L9.123,14.073 L10.498,14.073 L11.502,18.073 L12.381,14.073 L13.545,14.073 L12.154,19.8 L10.928,19.8 L9.787,15.519 L8.65,19.8 z" fill="#000000"/>
    <path d="M16.799,17.695 L16.799,16.73 L19.291,16.73 L19.291,19.011 Q18.928,19.363 18.238,19.63 Q17.549,19.898 16.842,19.898 Q15.943,19.898 15.275,19.521 Q14.607,19.144 14.271,18.443 Q13.936,17.741 13.936,16.917 Q13.936,16.023 14.311,15.327 Q14.686,14.632 15.408,14.261 Q15.959,13.976 16.779,13.976 Q17.846,13.976 18.445,14.423 Q19.045,14.87 19.217,15.659 L18.068,15.874 Q17.947,15.452 17.613,15.208 Q17.279,14.964 16.779,14.964 Q16.021,14.964 15.574,15.445 Q15.127,15.925 15.127,16.87 Q15.127,17.89 15.58,18.4 Q16.033,18.909 16.768,18.909 Q17.131,18.909 17.496,18.767 Q17.861,18.624 18.123,18.421 L18.123,17.695 z" fill="#000000"/>
    <g>
      <path d="M5.875,7.725 L8.075,4.112 L10.275,0.5 L12.475,4.112 L14.675,7.725 L10.275,7.725 z" fill="#CC3333"/>
      <path d="M5.875,7.725 L8.075,4.112 L10.275,0.5 L12.475,4.112 L14.675,7.725 L10.275,7.725 z" fill-opacity="0" stroke="#CC3333" stroke-width="0.2"/>
    </g>
    <g>
      <path d="M8.875,7.725 L11.675,7.725 L11.675,13.3 L8.875,13.3 L8.875,7.725 z" fill="#CC3333"/>
      <path d="M8.875,7.725 L11.675,7.725 L11.675,13.3 L8.875,13.3 L8.875,7.725 z" fill-opacity="0" stroke="#CC3333" stroke-width="0.2"/>
    </g>
  </g>
</svg>
