<?xml version="1.0" encoding="UTF-8"?>
<!DOCTYPE svg PUBLIC "-//W3C//DTD SVG 1.1//EN" "http://www.w3.org/Graphics/SVG/1.1/DTD/svg11.dtd">
<svg version="1.1" xmlns="http://www.w3.org/2000/svg" xmlns:xlink="http://www.w3.org/1999/xlink" x="0" y="0" width="20" height="20" viewBox="0, 0, 20, 20">
  <g id="DWG">
    <path d="M5.059,19.788 L5.059,14.108 L6.215,14.108 L6.215,18.823 L9.09,18.823 L9.09,19.788 z" fill="#000000"/>
    <path d="M9.6,16.983 Q9.6,16.108 9.862,15.514 Q10.057,15.077 10.395,14.729 Q10.733,14.381 11.135,14.213 Q11.67,13.987 12.37,13.987 Q13.635,13.987 14.395,14.772 Q15.155,15.557 15.155,16.955 Q15.155,18.342 14.401,19.125 Q13.647,19.909 12.385,19.909 Q11.108,19.909 10.354,19.129 Q9.6,18.35 9.6,16.983 z M10.791,16.944 Q10.791,17.916 11.241,18.418 Q11.69,18.92 12.381,18.92 Q13.073,18.92 13.516,18.422 Q13.959,17.924 13.959,16.928 Q13.959,15.944 13.528,15.459 Q13.096,14.975 12.381,14.975 Q11.666,14.975 11.229,15.465 Q10.791,15.955 10.791,16.944 z" fill="#000000"/>
    <g>
      <path d="M5.875,7.725 L8.075,4.112 L10.275,0.5 L12.475,4.112 L14.675,7.725 L10.275,7.725 z" fill="#CC3333"/>
      <path d="M5.875,7.725 L8.075,4.112 L10.275,0.5 L12.475,4.112 L14.675,7.725 L10.275,7.725 z" fill-opacity="0" stroke="#CC3333" stroke-width="0.2"/>
    </g>
    <g>
      <path d="M8.875,7.712 L11.675,7.712 L11.675,13.288 L8.875,13.288 L8.875,7.712 z" fill="#CC3333"/>
      <path d="M8.875,7.712 L11.675,7.712 L11.675,13.288 L8.875,13.288 L8.875,7.712 z" fill-opacity="0" stroke="#CC3333" stroke-width="0.2"/>
    </g>
  </g>
</svg>
