<?xml version="1.0" encoding="UTF-8"?>
<!DOCTYPE svg PUBLIC "-//W3C//DTD SVG 1.1//EN" "http://www.w3.org/Graphics/SVG/1.1/DTD/svg11.dtd">
<svg version="1.1" xmlns="http://www.w3.org/2000/svg" xmlns:xlink="http://www.w3.org/1999/xlink" x="0" y="0" width="20" height="20" viewBox="0, 0, 20, 20">
  <g id="Layer_2">
    <path d="M-0,12.2 L3.85,12.2 L-0,12.2 z" fill="#CC3333"/>
    <path d="M18.1,14.5 L18.1,14.5" fill-opacity="0" stroke="#CC3333" stroke-width="1"/>
    <path d="M4.35,15.7 L4.35,15.7" fill-opacity="0" stroke="#CC3333" stroke-width="1"/>
    <path d="M7.3,19.7 L7.3,19.7" fill-opacity="0" stroke="#CC3333" stroke-width="1"/>
    <path d="M2.5,12.9 L2.5,12.9" fill-opacity="0" stroke="#CC3333" stroke-width="1"/>
    <path d="M4.35,18.1 L4.35,18.1" fill-opacity="0" stroke="#CC3333" stroke-width="1"/>
    <path d="M10.5,23.3 L10.5,23.3" fill-opacity="0" stroke="#CC3333" stroke-width="1"/>
    <path d="M0.5,0.5 L0.5,0.5" fill-opacity="0" stroke="#CC3333" stroke-width="1"/>
  </g>
  <g id="DWG">
    <g>
      <g>
        <path d="M3.3,17.7 L3.3,7.894 L9.978,1.7 L17.213,7.894 L17.213,17.7 L3.3,17.7 z" fill="#FFFFFF"/>
        <path d="M3.3,17.7 L3.3,7.894 L9.978,1.7 L17.213,7.894 L17.213,17.7 L3.3,17.7 z" fill-opacity="0" stroke="#CC3333" stroke-width="1.5"/>
      </g>
      <path d="M3.3,12.9 C3.3,12.9 12.687,4.199 12.687,4.199" fill-opacity="0" stroke="#CC3333" stroke-width="0.858"/>
      <path d="M4.1,17.623 C4.1,17.623 15.786,7.3 15.786,7.3" fill-opacity="0" stroke="#CC3333" stroke-width="0.858"/>
      <path d="M10.1,17.7 C10.1,17.7 17.213,10.9 17.213,10.9" fill-opacity="0" stroke="#CC3333" stroke-width="0.858"/>
    </g>
    <g>
      <path d="M16.9,20.1 L13.021,16.939 L12.48,16.485 L11.788,16.211 L11.11,16.103 C11.11,16.103 10.101,16.025 10.101,16.025 C10.101,16.025 9.272,16.097 9.272,16.097 C9.272,16.097 8.608,16.155 8.608,16.155 C8.608,16.155 8.262,16.018 8.262,16.018 C8.262,16.018 7.75,15.896 7.75,15.896 L7.209,15.442 C7.209,15.442 6.473,14.671 6.473,14.671 C6.473,14.671 5.737,13.9 5.737,13.9 L5.182,13.28 L4.973,12.797 L4.9,11.968 L5.217,11.773 L5.715,11.73 L6.602,12.32 L7.294,12.594 L8.001,13.034 L8.498,12.99 L8.981,12.781 L9.284,12.42 L9.572,11.894 L10.012,11.187 L10.134,10.675 L10.256,10.163 L10.213,9.665 L9.852,9.363 L9.477,8.894 L8.785,8.62 L8.258,8.332 L7.732,8.044 L7.205,7.756 C7.205,7.756 7.01,7.439 7.01,7.439 C7.01,7.439 6.981,7.107 6.981,7.107 C6.981,7.107 7.464,6.898 7.464,6.898 C7.464,6.898 8.279,6.66 8.279,6.66 C8.279,6.66 8.942,6.602 8.942,6.602 C8.942,6.602 10.103,6.5 10.103,6.5 L10.947,6.593 L11.819,7.018 C11.819,7.018 12.346,7.306 12.346,7.306 C12.346,7.306 12.887,7.76 12.887,7.76 C12.887,7.76 13.247,8.063 13.247,8.063 C13.247,8.063 13.652,8.863 13.652,8.863 C13.652,8.863 13.695,9.361 13.695,9.361 C13.695,9.361 13.768,10.19 13.768,10.19 L13.811,10.687 L13.869,11.35 C13.869,11.35 14.079,11.833 14.079,11.833 C14.079,11.833 14.288,12.316 14.288,12.316 C14.288,12.316 14.483,12.634 14.483,12.634 C14.483,12.634 14.872,13.268 14.872,13.268 L15.413,13.722 C15.413,13.722 17.772,15.855 17.772,15.855 C17.772,15.855 19.653,17.186 19.653,17.186 L19.682,17.517 L19.725,18.015 C19.725,18.015 19.423,18.375 19.423,18.375 C19.423,18.375 19.286,18.722 19.286,18.722 L19.149,19.068 L18.832,19.263 L18.681,19.443 C18.681,19.443 18.363,19.638 18.363,19.638 C18.363,19.638 18.046,19.833 18.046,19.833 C18.046,19.833 17.729,20.027 17.729,20.027 C17.729,20.027 17.397,20.056 17.397,20.056 C17.397,20.056 16.9,20.1 16.9,20.1 z" fill="#000000"/>
      <path d="M16.9,20.1 L13.021,16.939 L12.48,16.485 L11.788,16.211 L11.11,16.103 C11.11,16.103 10.101,16.025 10.101,16.025 C10.101,16.025 9.272,16.097 9.272,16.097 C9.272,16.097 8.608,16.155 8.608,16.155 C8.608,16.155 8.262,16.018 8.262,16.018 C8.262,16.018 7.75,15.896 7.75,15.896 L7.209,15.442 C7.209,15.442 6.473,14.671 6.473,14.671 C6.473,14.671 5.737,13.9 5.737,13.9 L5.182,13.28 L4.973,12.797 L4.9,11.968 L5.217,11.773 L5.715,11.73 L6.602,12.32 L7.294,12.594 L8.001,13.034 L8.498,12.99 L8.981,12.781 L9.284,12.42 L9.572,11.894 L10.012,11.187 L10.134,10.675 L10.256,10.163 L10.213,9.665 L9.852,9.363 L9.477,8.894 L8.785,8.62 L8.258,8.332 L7.732,8.044 L7.205,7.756 C7.205,7.756 7.01,7.439 7.01,7.439 C7.01,7.439 6.981,7.107 6.981,7.107 C6.981,7.107 7.464,6.898 7.464,6.898 C7.464,6.898 8.279,6.66 8.279,6.66 C8.279,6.66 8.942,6.602 8.942,6.602 C8.942,6.602 10.103,6.5 10.103,6.5 L10.947,6.593 L11.819,7.018 C11.819,7.018 12.346,7.306 12.346,7.306 C12.346,7.306 12.887,7.76 12.887,7.76 C12.887,7.76 13.247,8.063 13.247,8.063 C13.247,8.063 13.652,8.863 13.652,8.863 C13.652,8.863 13.695,9.361 13.695,9.361 C13.695,9.361 13.768,10.19 13.768,10.19 L13.811,10.687 L13.869,11.35 C13.869,11.35 14.079,11.833 14.079,11.833 C14.079,11.833 14.288,12.316 14.288,12.316 C14.288,12.316 14.483,12.634 14.483,12.634 C14.483,12.634 14.872,13.268 14.872,13.268 L15.413,13.722 C15.413,13.722 17.772,15.855 17.772,15.855 C17.772,15.855 19.653,17.186 19.653,17.186 L19.682,17.517 L19.725,18.015 C19.725,18.015 19.423,18.375 19.423,18.375 C19.423,18.375 19.286,18.722 19.286,18.722 L19.149,19.068 L18.832,19.263 L18.681,19.443 C18.681,19.443 18.363,19.638 18.363,19.638 C18.363,19.638 18.046,19.833 18.046,19.833 C18.046,19.833 17.729,20.027 17.729,20.027 C17.729,20.027 17.397,20.056 17.397,20.056 C17.397,20.056 16.9,20.1 16.9,20.1 z" fill-opacity="0" stroke="#000000" stroke-width="0.25"/>
    </g>
  </g>
</svg>
