<?xml version="1.0" encoding="UTF-8" standalone="no"?>
<svg
   xmlns:dc="http://purl.org/dc/elements/1.1/"
   xmlns:cc="http://creativecommons.org/ns#"
   xmlns:rdf="http://www.w3.org/1999/02/22-rdf-syntax-ns#"
   xmlns:svg="http://www.w3.org/2000/svg"
   xmlns="http://www.w3.org/2000/svg"
   viewBox="0 0 30 30"
   height="30"
   width="30"
   xml:space="preserve"
   version="1.1"
   id="svg2"><metadata
     id="metadata8"><rdf:RDF><cc:Work
         rdf:about=""><dc:format>image/svg+xml</dc:format><dc:type
           rdf:resource="http://purl.org/dc/dcmitype/StillImage" /><dc:title></dc:title></cc:Work></rdf:RDF></metadata><defs
     id="defs6" /><g
     transform="matrix(1.25,0,0,-1.25,0,30)"
     id="g10"><g
       id="g12"><path
         id="path14"
         style="fill:#cf2b3a;fill-opacity:1;fill-rule:nonzero;stroke:none"
         d="m 2.609,21.363 18.875,0 0,-18.793 -18.875,0 0,18.793 z" /><path
         id="path16"
         style="fill:#ffffff;fill-opacity:1;fill-rule:nonzero;stroke:none"
         d="m 2.168,21.832 0,-19.746 19.746,0 0,19.746 -19.746,0 z m 1.144,-1.144 3.141,0 -3.141,-3.141 0,3.141 z m 4.766,0 1.625,0 -6.391,-6.391 0,1.625 4.766,4.766 z m 3.254,0 5.043,0 -13.063,-13.063 0,5.043 8.02,8.02 z m 6.676,0 1.621,0 -16.317,-16.317 0,1.625 14.696,14.692 z m 2.765,-0.485 0,-5.043 L 8.84,3.227 l -5.043,0 16.976,16.976 z m 0,-6.672 0,-1.625 -8.679,-8.679 -1.625,0 10.304,10.304 z m 0,-3.254 0,-4.554 -2.496,-2.496 -4.554,0 7.05,7.05 z m 0,-6.183 0,-0.867 -0.867,0 0.867,0.867 z" /><path
         id="path18"
         style="fill:#ffffff;fill-opacity:1;fill-rule:nonzero;stroke:none"
         d="m 2.168,21.832 0,-19.746 19.746,0 0,19.746 -19.746,0 z m 1.144,-1.144 3.141,0 -3.141,-3.141 0,3.141 z m 4.766,0 1.625,0 -6.391,-6.391 0,1.625 4.766,4.766 z m 3.254,0 5.043,0 -13.063,-13.063 0,5.043 8.02,8.02 z m 6.676,0 1.621,0 -16.317,-16.317 0,1.625 14.696,14.692 z m 2.765,-0.485 0,-5.043 L 8.84,3.227 l -5.043,0 16.976,16.976 z m 0,-6.672 0,-1.625 -8.679,-8.679 -1.625,0 10.304,10.304 z m 0,-3.254 0,-4.554 -2.496,-2.496 -4.554,0 7.05,7.05 z m 0,-6.183 0,-0.867 -0.867,0 0.867,0.867 z" /></g></g></svg>