<?xml version="1.0" encoding="UTF-8" standalone="no"?>
<svg
   xmlns:dc="http://purl.org/dc/elements/1.1/"
   xmlns:cc="http://creativecommons.org/ns#"
   xmlns:rdf="http://www.w3.org/1999/02/22-rdf-syntax-ns#"
   xmlns:svg="http://www.w3.org/2000/svg"
   xmlns="http://www.w3.org/2000/svg"
   viewBox="0 0 30 30"
   height="30"
   width="30"
   xml:space="preserve"
   version="1.1"
   id="svg2"><metadata
     id="metadata8"><rdf:RDF><cc:Work
         rdf:about=""><dc:format>image/svg+xml</dc:format><dc:type
           rdf:resource="http://purl.org/dc/dcmitype/StillImage" /><dc:title></dc:title></cc:Work></rdf:RDF></metadata><defs
     id="defs6" /><g
     transform="matrix(1.25,0,0,-1.25,0,30)"
     id="g10"><g
       id="g12"><path
         id="path14"
         style="fill:#ffffff;fill-opacity:1;fill-rule:nonzero;stroke:none"
         d="M 11.699,13.785 C 7.766,12.73 4.176,12.836 2.605,13.895 2.551,13.477 2.516,13.051 2.516,12.617 c 0,-5.258 4.242,-9.492 9.5,-9.492 5.257,0 9.492,4.234 9.492,9.492 0,2.195 -0.742,4.215 -1.988,5.821 -0.821,-1.711 -3.883,-3.598 -7.821,-4.653" /><path
         id="path16"
         style="fill:#ce2c3a;fill-opacity:1;fill-rule:nonzero;stroke:none"
         d="m 12.016,3.125 c -5.258,0 -9.5,4.234 -9.5,9.492 0,0.434 0.035,0.86 0.089,1.278 1.571,-1.059 5.161,-1.165 9.094,-0.11 3.938,1.055 7,2.942 7.821,4.653 1.246,-1.606 1.988,-3.626 1.988,-5.821 0,-5.258 -4.235,-9.492 -9.492,-9.492 z m 7.148,17.383 c -0.781,0.691 -2.289,1.051 -4.187,1.047 -1.528,0 -3.309,-0.243 -5.168,-0.739 C 5.508,19.664 2.254,17.52 1.816,15.695 1.527,14.723 1.367,13.691 1.367,12.617 1.367,6.734 6.133,1.969 12.016,1.969 c 5.882,0 10.648,4.765 10.648,10.648 0,3.129 -1.352,5.942 -3.5,7.891" /></g></g></svg>