<?xml version="1.0" encoding="UTF-8" standalone="no"?>
<svg
   xmlns:dc="http://purl.org/dc/elements/1.1/"
   xmlns:cc="http://creativecommons.org/ns#"
   xmlns:rdf="http://www.w3.org/1999/02/22-rdf-syntax-ns#"
   xmlns:svg="http://www.w3.org/2000/svg"
   xmlns="http://www.w3.org/2000/svg"
   viewBox="0 0 24.000002 24.000002"
   height="24.000002"
   width="24.000002"
   xml:space="preserve"
   version="1.1"
   id="svg2"><metadata
     id="metadata8"><rdf:RDF><cc:Work
         rdf:about=""><dc:format>image/svg+xml</dc:format><dc:type
           rdf:resource="http://purl.org/dc/dcmitype/StillImage" /><dc:title></dc:title></cc:Work></rdf:RDF></metadata><defs
     id="defs6" /><g
     transform="matrix(1.25,0,0,-1.25,0,24.000001)"
     id="g10"><g
       id="g12"><path
         id="path14"
         style="fill:#ffffff;fill-opacity:1;fill-rule:nonzero;stroke:none"
         d="M 9.316,10.622 C 5.777,9.673 2.547,9.77 1.133,10.723 1.086,10.348 1.055,9.962 1.055,9.575 c 0,-4.734 3.816,-8.543 8.547,-8.543 4.73,0 8.543,3.809 8.543,8.543 0,1.973 -0.668,3.793 -1.79,5.238 -0.738,-1.539 -3.496,-3.238 -7.039,-4.191" /><path
         id="path16"
         style="fill:#ce2c3a;fill-opacity:1;fill-rule:nonzero;stroke:none"
         d="m 9.602,1.032 c -4.731,0 -8.547,3.809 -8.547,8.543 0,0.387 0.031,0.773 0.078,1.148 1.414,-0.953 4.644,-1.05 8.183,-0.101 3.543,0.953 6.301,2.652 7.039,4.191 1.122,-1.445 1.79,-3.265 1.79,-5.238 0,-4.734 -3.813,-8.543 -8.543,-8.543 z m 6.433,15.641 c -0.703,0.621 -2.062,0.949 -3.769,0.945 -1.375,0 -2.977,-0.219 -4.649,-0.664 C 3.746,15.915 0.816,13.985 0.426,12.341 0.164,11.466 0.02,10.54 0.02,9.575 c 0,-5.293 4.289,-9.582 9.582,-9.582 5.293,0 9.582,4.289 9.582,9.582 0,2.816 -1.215,5.344 -3.149,7.098" /></g></g></svg>