<?xml version="1.0" encoding="UTF-8"?>
<svg xmlns="http://www.w3.org/2000/svg" xmlns:xlink="http://www.w3.org/1999/xlink" width="25pt" height="24pt" viewBox="0 0 25 24">
<defs>
<clipPath id="clip-0">
<path clip-rule="nonzero" d="M 6 5 L 20 5 L 20 19 L 6 19 Z M 6 5 "/>
</clipPath>
<clipPath id="clip-1">
<path clip-rule="evenodd" d="M 6 12 C 6 8.136719 9.136719 5 13 5 C 16.863281 5 20 8.136719 20 12 C 20 15.863281 16.863281 19 13 19 C 9.136719 19 6 15.863281 6 12 Z M 6 12 "/>
</clipPath>
<clipPath id="clip-2">
<path clip-rule="nonzero" d="M 12.046875 7.546875 L 13.796875 7.546875 L 13.796875 11.046875 L 12.046875 11.046875 Z M 8.546875 11.046875 L 17.296875 11.046875 L 17.296875 12.796875 L 8.546875 12.796875 Z M 12.046875 12.796875 L 13.796875 12.796875 L 13.796875 16.296875 L 12.046875 16.296875 Z M 12.046875 12.796875 "/>
</clipPath>
</defs>
<g clip-path="url(#clip-0)">
<g clip-path="url(#clip-1)">
<path fill-rule="nonzero" fill="rgb(100%, 100%, 100%)" fill-opacity="1" d="M 1 0 L 25 0 L 25 24 L 1 24 Z M 1 0 "/>
<path fill="none" stroke-width="2.545029" stroke-linecap="butt" stroke-linejoin="miter" stroke="rgb(0%, 0%, 0%)" stroke-opacity="1" stroke-miterlimit="10" d="M 0 7 C 0 3.136719 3.136719 0 7 0 C 10.863281 0 14 3.136719 14 7 C 14 10.863281 10.863281 14 7 14 C 3.136719 14 0 10.863281 0 7 Z M 0 7 " transform="matrix(1, 0, 0, 1, 6, 5)"/>
</g>
</g>
<g clip-path="url(#clip-2)">
<path fill-rule="nonzero" fill="rgb(0%, 0%, 0%)" fill-opacity="1" d="M 3.546875 2.546875 L 22.296875 2.546875 L 22.296875 21.296875 L 3.546875 21.296875 Z M 3.546875 2.546875 "/>
</g>
<path fill="none" stroke-width="0.5" stroke-linecap="round" stroke-linejoin="round" stroke="rgb(0%, 0%, 0%)" stroke-opacity="1" stroke-miterlimit="10" d="M 5.251553 3.501595 L 5.251553 0.001595 L 3.501553 0.001595 L 3.501553 3.501595 L 0.001553 3.501595 L 0.001553 5.251595 L 3.501553 5.251595 L 3.501553 8.751595 L 5.251553 8.751595 L 5.251553 5.251595 L 8.751553 5.251595 L 8.751553 3.501595 Z M 5.251553 3.501595 " transform="matrix(1, 0, 0, 1, 8.545322, 7.54528)"/>
</svg>
