<?xml version="1.0" encoding="UTF-8"?>
<svg xmlns="http://www.w3.org/2000/svg" xmlns:xlink="http://www.w3.org/1999/xlink" width="24pt" height="24pt" viewBox="0 0 24 24">
<path fill-rule="nonzero" fill="#000000" fill-opacity="1" d="M 12.972656 2.488281 L 12.972656 10.433594 L 13.453125 10.433594 L 13.453125 2.488281 Z M 13.109375 10.21875 L 4.550781 14.417969 L 4.761719 14.847656 L 13.320312 10.648438 Z M 13.046875 10.605469 L 19.492188 16.84375 L 19.828125 16.5 L 13.378906 10.261719 Z M 13.046875 10.605469 "/>
<path fill-rule="nonzero" fill="#000000" fill-opacity="1" d="M 4.117188 7.394531 L 3.894531 6.96875 L 3.601562 7.125 L 3.640625 7.453125 Z M 13.273438 2.597656 L 13.617188 2.265625 L 13.367188 2.003906 L 13.050781 2.171875 Z M 19.882812 9.480469 L 20.363281 9.496094 L 20.367188 9.292969 L 20.230469 9.148438 Z M 4.972656 14.464844 L 4.496094 14.523438 L 4.511719 14.660156 L 4.601562 14.769531 Z M 19.675781 16.507812 L 19.917969 16.921875 L 20.148438 16.789062 L 20.15625 16.523438 Z M 10.9375 21.660156 L 10.566406 21.964844 L 10.828125 22.28125 L 11.179688 22.074219 Z M 4.339844 7.820312 L 13.496094 3.023438 L 13.050781 2.171875 L 3.894531 6.96875 Z M 12.925781 2.929688 L 19.539062 9.8125 L 20.230469 9.148438 L 13.617188 2.265625 Z M 19.648438 9.0625 L 10.160156 14.378906 L 10.628906 15.214844 L 20.117188 9.898438 Z M 10.761719 14.488281 L 4.484375 7.085938 L 3.75 7.703125 L 10.027344 15.109375 Z M 19.429688 16.09375 L 10.691406 21.246094 L 11.179688 22.074219 L 19.917969 16.921875 Z M 11.304688 21.351562 L 5.339844 14.160156 L 4.601562 14.769531 L 10.566406 21.964844 Z M 3.640625 7.453125 L 4.496094 14.523438 L 5.449219 14.40625 L 4.59375 7.335938 Z M 9.917969 14.835938 L 10.457031 21.699219 L 11.414062 21.621094 L 10.871094 14.761719 Z M 19.402344 9.464844 L 19.195312 16.492188 L 20.15625 16.523438 L 20.363281 9.496094 Z M 19.402344 9.464844 "/>
</svg>
