<?xml version="1.0" encoding="UTF-8"?>
<svg xmlns="http://www.w3.org/2000/svg" xmlns:xlink="http://www.w3.org/1999/xlink" width="24pt" height="24pt" viewBox="0 0 24 24">
<path fill-rule="evenodd" fill="rgb(21.176147%, 20.783997%, 27.058411%)" fill-opacity="1" d="M 12 16.5 C 12 14.015625 14.015625 12 16.5 12 C 18.984375 12 21 14.015625 21 16.5 C 21 18.984375 18.984375 21 16.5 21 C 14.015625 21 12 18.984375 12 16.5 Z M 20.101562 16.5 C 20.101562 14.511719 18.488281 12.898438 16.5 12.898438 C 14.511719 12.898438 12.898438 14.511719 12.898438 16.5 C 12.898438 18.488281 14.511719 20.101562 16.5 20.101562 C 18.488281 20.101562 20.101562 18.488281 20.101562 16.5 Z M 20.101562 16.5 "/>
<path fill-rule="nonzero" fill="rgb(21.176147%, 20.783997%, 27.058411%)" fill-opacity="1" d="M 17 14.5 C 17 14.222656 16.777344 14 16.5 14 C 16.222656 14 16 14.222656 16 14.5 Z M 16 18.5 C 16 18.777344 16.222656 19 16.5 19 C 16.777344 19 17 18.777344 17 18.5 Z M 16 14.5 L 16 18.5 L 17 18.5 L 17 14.5 Z M 16 14.5 "/>
<path fill-rule="nonzero" fill="rgb(21.176147%, 20.783997%, 27.058411%)" fill-opacity="1" d="M 14.5 16 C 14.222656 16 14 16.222656 14 16.5 C 14 16.777344 14.222656 17 14.5 17 Z M 18.5 17 C 18.777344 17 19 16.777344 19 16.5 C 19 16.222656 18.777344 16 18.5 16 Z M 14.5 17 L 18.5 17 L 18.5 16 L 14.5 16 Z M 14.5 17 "/>
<path fill-rule="nonzero" fill="rgb(21.176147%, 20.783997%, 27.058411%)" fill-opacity="1" d="M 18 11.5 C 18 11.777344 18.222656 12 18.5 12 C 18.777344 12 19 11.777344 19 11.5 Z M 18.5 7.5 L 19 7.5 C 19 7.222656 18.777344 7 18.5 7 Z M 11.5 7.5 L 11.144531 7.855469 C 11.238281 7.949219 11.367188 8 11.5 8 Z M 9.5 5.5 L 9.855469 5.144531 C 9.761719 5.050781 9.632812 5 9.5 5 Z M 3.5 5.5 L 3.5 5 C 3.222656 5 3 5.222656 3 5.5 Z M 3.5 17.5 L 3 17.5 C 3 17.777344 3.222656 18 3.5 18 Z M 10.5 18 C 10.777344 18 11 17.777344 11 17.5 C 11 17.222656 10.777344 17 10.5 17 Z M 19 11.5 L 19 7.5 L 18 7.5 L 18 11.5 Z M 18.5 7 L 11.5 7 L 11.5 8 L 18.5 8 Z M 11.855469 7.144531 L 9.855469 5.144531 L 9.144531 5.855469 L 11.144531 7.855469 Z M 9.5 5 L 3.5 5 L 3.5 6 L 9.5 6 Z M 3 5.5 L 3 17.5 L 4 17.5 L 4 5.5 Z M 3.5 18 L 10.5 18 L 10.5 17 L 3.5 17 Z M 3.5 18 "/>
</svg>
