<svg width="24" height="24" viewBox="0 0 24 24" fill="none" xmlns="http://www.w3.org/2000/svg">
  <!-- Isometric cube outline -->
  <path d="M12 3L20 7.5V16.5L12 21L4 16.5V7.5L12 3Z" stroke="#4A90E2" stroke-width="1.5" fill="none"/>
  <path d="M12 3V12M12 21V12M12 12L4 7.5M12 12L20 7.5M12 12L4 16.5M12 12L20 16.5" stroke="#4A90E2" stroke-width="1" opacity="0.3"/>
  
  <!-- Inward-pointing arrows on each face -->
  <!-- Top arrow -->
  <path d="M12 6L11 7L12 8L13 7L12 6Z" fill="#4A90E2"/>
  <!-- Bottom arrow -->
  <path d="M12 18L11 17L12 16L13 17L12 18Z" fill="#4A90E2"/>
  <!-- Left arrow -->
  <path d="M7 10L8 11L7 12L8 13L7 10Z" fill="#4A90E2"/>
  <!-- Right arrow -->
  <path d="M17 10L16 11L17 12L16 13L17 10Z" fill="#4A90E2"/>
</svg>
