<?xml version="1.0" encoding="UTF-8"?>
<svg xmlns="http://www.w3.org/2000/svg" xmlns:xlink="http://www.w3.org/1999/xlink" width="24pt" height="24pt" viewBox="0 0 24 24">
<defs>
<clipPath id="clip-0">
<path clip-rule="nonzero" d="M 2 2 L 22 2 L 22 22 L 2 22 Z M 2 2 "/>
</clipPath>
<clipPath id="clip-1">
<path clip-rule="evenodd" d="M 22 12 C 22 17.523438 17.523438 22 12 22 C 6.476562 22 2 17.523438 2 12 C 2 6.476562 6.476562 2 12 2 C 17.523438 2 22 6.476562 22 12 Z M 22 12 "/>
</clipPath>
</defs>
<g clip-path="url(#clip-0)">
<g clip-path="url(#clip-1)">
<path fill-rule="nonzero" fill="#000000" fill-opacity="1" d="M 21 12 C 21 16.96875 16.96875 21 12 21 L 12 23 C 18.074219 23 23 18.074219 23 12 Z M 12 21 C 7.03125 21 3 16.96875 3 12 L 1 12 C 1 18.074219 5.925781 23 12 23 Z M 3 12 C 3 7.03125 7.03125 3 12 3 L 12 1 C 5.925781 1 1 5.925781 1 12 Z M 12 3 C 16.96875 3 21 7.03125 21 12 L 23 12 C 23 5.925781 18.074219 1 12 1 Z M 12 3 "/>
</g>
</g>
<path fill-rule="nonzero" fill="#000000" fill-opacity="1" d="M 11.5 17 C 11.5 17.277344 11.722656 17.5 12 17.5 C 12.277344 17.5 12.5 17.277344 12.5 17 Z M 12.5 7 C 12.5 6.722656 12.277344 6.5 12 6.5 C 11.722656 6.5 11.5 6.722656 11.5 7 Z M 12.5 17 L 12.5 7 L 11.5 7 L 11.5 17 Z M 12.5 17 "/>
<path fill-rule="nonzero" fill="#000000" fill-opacity="1" d="M 7 11.5 C 6.722656 11.5 6.5 11.722656 6.5 12 C 6.5 12.277344 6.722656 12.5 7 12.5 Z M 17 12.5 C 17.277344 12.5 17.5 12.277344 17.5 12 C 17.5 11.722656 17.277344 11.5 17 11.5 Z M 7 12.5 L 17 12.5 L 17 11.5 L 7 11.5 Z M 7 12.5 "/>
</svg>
