<?xml version="1.0" encoding="UTF-8"?>
<svg xmlns="http://www.w3.org/2000/svg" xmlns:xlink="http://www.w3.org/1999/xlink" width="24pt" height="24pt" viewBox="0 0 24 24">
<defs>
<clipPath id="clip-0">
<path clip-rule="nonzero" d="M 6.726562 4.289062 L 17.273438 4.289062 L 17.273438 19.757812 L 6.726562 19.757812 Z M 6.726562 4.289062 "/>
</clipPath>
<clipPath id="clip-1">
<path clip-rule="nonzero" d="M 6 3 L 18 3 L 18 4.6875 L 6 4.6875 Z M 16.875 4.6875 L 18 4.6875 L 18 19.359375 L 16.875 19.359375 Z M 6 4.6875 L 7.125 4.6875 L 7.125 19.359375 L 6 19.359375 Z M 6 19.359375 L 18 19.359375 L 18 21 L 6 21 Z M 6 19.359375 "/>
</clipPath>
<clipPath id="clip-2">
<path clip-rule="nonzero" d="M 7.125 4.6875 L 16.875 4.6875 L 16.875 12.796875 L 7.125 12.796875 Z M 7.125 4.6875 "/>
</clipPath>
<clipPath id="clip-3">
<path clip-rule="nonzero" d="M 8 13 L 16 13 L 16 18 L 8 18 Z M 8 13 "/>
</clipPath>
<clipPath id="clip-4">
<path clip-rule="evenodd" d="M 15.796875 17.710938 L 12.03125 13.5 L 8.203125 17.71875 Z M 15.796875 17.710938 "/>
</clipPath>
<clipPath id="clip-5">
<path clip-rule="nonzero" d="M 9.5625 7.921875 L 14.4375 7.921875 L 14.4375 9.515625 L 9.5625 9.515625 Z M 9.5625 7.921875 "/>
</clipPath>
</defs>
<g clip-path="url(#clip-0)">
<path fill-rule="nonzero" fill="rgb(100%, 100%, 100%)" fill-opacity="1" d="M 2.125 -0.3125 L 21.875 -0.3125 L 21.875 24.359375 L 2.125 24.359375 Z M 2.125 -0.3125 "/>
</g>
<g clip-path="url(#clip-1)">
<path fill="none" stroke-width="1.590643" stroke-linecap="butt" stroke-linejoin="miter" stroke="rgb(59.216309%, 59.216309%, 59.216309%)" stroke-opacity="1" stroke-miterlimit="10" d="M 0.000000000000000888 0 L 9.75 0 L 9.75 14.671875 L 0.000000000000000888 14.671875 Z M 0.000000000000000888 0 " transform="matrix(1, 0, 0, 1, 7.125, 4.6875)"/>
</g>
<g clip-path="url(#clip-2)">
<path fill-rule="nonzero" fill="rgb(0%, 0%, 0%)" fill-opacity="1" d="M 2.125 -0.3125 L 21.875 -0.3125 L 21.875 17.796875 L 2.125 17.796875 Z M 2.125 -0.3125 "/>
</g>
<g clip-path="url(#clip-3)">
<g clip-path="url(#clip-4)">
<path fill-rule="nonzero" fill="rgb(0%, 0%, 0%)" fill-opacity="1" d="M 20.796875 22.71875 L 3.203125 22.71875 L 3.203125 8.5 L 20.796875 8.5 Z M 20.796875 22.71875 "/>
</g>
</g>
<g clip-path="url(#clip-5)">
<path fill-rule="nonzero" fill="rgb(100%, 100%, 100%)" fill-opacity="1" d="M 4.5625 2.921875 L 19.4375 2.921875 L 19.4375 14.515625 L 4.5625 14.515625 Z M 4.5625 2.921875 "/>
</g>
</svg>
